<mxfile host="app.diagrams.net" agent="Mozilla/5.0 (Macintosh; Intel Mac OS X 10_15_7) AppleWebKit/537.36 (KHTML, like Gecko) Chrome/136.0.0.0 Safari/537.36" version="26.2.14">
  <diagram id="C5RBs43oDa-KdzZeNtuy" name="Page-1">
    <mxGraphModel dx="2262" dy="2700" grid="1" gridSize="10" guides="1" tooltips="1" connect="1" arrows="1" fold="1" page="1" pageScale="1" pageWidth="827" pageHeight="1169" math="0" shadow="0">
      <root>
        <mxCell id="WIyWlLk6GJQsqaUBKTNV-0" />
        <mxCell id="WIyWlLk6GJQsqaUBKTNV-1" parent="WIyWlLk6GJQsqaUBKTNV-0" />
        <mxCell id="xqUfiWubJbebN2fs-ksx-53" value="" style="edgeStyle=orthogonalEdgeStyle;rounded=0;orthogonalLoop=1;jettySize=auto;html=1;" edge="1" parent="WIyWlLk6GJQsqaUBKTNV-1" source="xqUfiWubJbebN2fs-ksx-7" target="xqUfiWubJbebN2fs-ksx-52">
          <mxGeometry relative="1" as="geometry" />
        </mxCell>
        <mxCell id="xqUfiWubJbebN2fs-ksx-7" value="Robot is on" style="strokeWidth=2;html=1;shape=mxgraph.flowchart.start_1;whiteSpace=wrap;" vertex="1" parent="WIyWlLk6GJQsqaUBKTNV-1">
          <mxGeometry x="349.99" y="-600" width="100" height="70" as="geometry" />
        </mxCell>
        <mxCell id="xqUfiWubJbebN2fs-ksx-67" value="" style="edgeStyle=orthogonalEdgeStyle;rounded=0;orthogonalLoop=1;jettySize=auto;html=1;" edge="1" parent="WIyWlLk6GJQsqaUBKTNV-1" source="xqUfiWubJbebN2fs-ksx-44" target="xqUfiWubJbebN2fs-ksx-66">
          <mxGeometry relative="1" as="geometry" />
        </mxCell>
        <mxCell id="xqUfiWubJbebN2fs-ksx-44" value="Move motors (head and arms)" style="rounded=1;whiteSpace=wrap;html=1;absoluteArcSize=1;arcSize=14;strokeWidth=2;" vertex="1" parent="WIyWlLk6GJQsqaUBKTNV-1">
          <mxGeometry x="140" y="220" width="117.5" height="40" as="geometry" />
        </mxCell>
        <mxCell id="xqUfiWubJbebN2fs-ksx-68" value="" style="edgeStyle=orthogonalEdgeStyle;rounded=0;orthogonalLoop=1;jettySize=auto;html=1;" edge="1" parent="WIyWlLk6GJQsqaUBKTNV-1" source="xqUfiWubJbebN2fs-ksx-45" target="xqUfiWubJbebN2fs-ksx-66">
          <mxGeometry relative="1" as="geometry" />
        </mxCell>
        <mxCell id="xqUfiWubJbebN2fs-ksx-45" value="Produce Sound" style="rounded=1;whiteSpace=wrap;html=1;absoluteArcSize=1;arcSize=14;strokeWidth=2;" vertex="1" parent="WIyWlLk6GJQsqaUBKTNV-1">
          <mxGeometry x="280" y="220" width="117.5" height="40" as="geometry" />
        </mxCell>
        <mxCell id="xqUfiWubJbebN2fs-ksx-93" style="edgeStyle=orthogonalEdgeStyle;rounded=0;orthogonalLoop=1;jettySize=auto;html=1;exitX=0.5;exitY=1;exitDx=0;exitDy=0;entryX=0.5;entryY=0;entryDx=0;entryDy=0;" edge="1" parent="WIyWlLk6GJQsqaUBKTNV-1" source="xqUfiWubJbebN2fs-ksx-52" target="xqUfiWubJbebN2fs-ksx-92">
          <mxGeometry relative="1" as="geometry" />
        </mxCell>
        <mxCell id="xqUfiWubJbebN2fs-ksx-52" value="Set up procedure" style="rounded=1;whiteSpace=wrap;html=1;absoluteArcSize=1;arcSize=14;strokeWidth=2;" vertex="1" parent="WIyWlLk6GJQsqaUBKTNV-1">
          <mxGeometry x="349.99" y="-500" width="100" height="40" as="geometry" />
        </mxCell>
        <mxCell id="xqUfiWubJbebN2fs-ksx-57" value="" style="edgeStyle=orthogonalEdgeStyle;rounded=0;orthogonalLoop=1;jettySize=auto;html=1;" edge="1" parent="WIyWlLk6GJQsqaUBKTNV-1" source="xqUfiWubJbebN2fs-ksx-54" target="xqUfiWubJbebN2fs-ksx-56">
          <mxGeometry relative="1" as="geometry" />
        </mxCell>
        <mxCell id="xqUfiWubJbebN2fs-ksx-54" value="Read distance detected by SONAR" style="rounded=1;whiteSpace=wrap;html=1;absoluteArcSize=1;arcSize=14;strokeWidth=2;" vertex="1" parent="WIyWlLk6GJQsqaUBKTNV-1">
          <mxGeometry x="200" y="40" width="136" height="50" as="geometry" />
        </mxCell>
        <mxCell id="xqUfiWubJbebN2fs-ksx-125" style="edgeStyle=orthogonalEdgeStyle;rounded=0;orthogonalLoop=1;jettySize=auto;html=1;exitX=0;exitY=0.5;exitDx=0;exitDy=0;exitPerimeter=0;" edge="1" parent="WIyWlLk6GJQsqaUBKTNV-1" source="xqUfiWubJbebN2fs-ksx-56">
          <mxGeometry relative="1" as="geometry">
            <mxPoint x="400" y="-390" as="targetPoint" />
            <Array as="points">
              <mxPoint x="120" y="145" />
              <mxPoint x="120" y="-390" />
            </Array>
          </mxGeometry>
        </mxCell>
        <mxCell id="xqUfiWubJbebN2fs-ksx-126" value="NO" style="edgeLabel;html=1;align=center;verticalAlign=middle;resizable=0;points=[];" vertex="1" connectable="0" parent="xqUfiWubJbebN2fs-ksx-125">
          <mxGeometry x="-0.9053" y="-2" relative="1" as="geometry">
            <mxPoint as="offset" />
          </mxGeometry>
        </mxCell>
        <mxCell id="xqUfiWubJbebN2fs-ksx-56" value="distance &amp;lt; 50?" style="strokeWidth=2;html=1;shape=mxgraph.flowchart.decision;whiteSpace=wrap;" vertex="1" parent="WIyWlLk6GJQsqaUBKTNV-1">
          <mxGeometry x="208" y="120" width="120" height="50" as="geometry" />
        </mxCell>
        <mxCell id="xqUfiWubJbebN2fs-ksx-59" value="" style="edgeStyle=orthogonalEdgeStyle;rounded=0;orthogonalLoop=1;jettySize=auto;html=1;exitX=0.5;exitY=1;exitDx=0;exitDy=0;exitPerimeter=0;entryX=0.5;entryY=0;entryDx=0;entryDy=0;" edge="1" parent="WIyWlLk6GJQsqaUBKTNV-1" source="xqUfiWubJbebN2fs-ksx-56" target="xqUfiWubJbebN2fs-ksx-44">
          <mxGeometry relative="1" as="geometry">
            <mxPoint x="270" y="190" as="sourcePoint" />
            <mxPoint x="268" y="210" as="targetPoint" />
          </mxGeometry>
        </mxCell>
        <mxCell id="xqUfiWubJbebN2fs-ksx-61" value="" style="edgeStyle=orthogonalEdgeStyle;rounded=0;orthogonalLoop=1;jettySize=auto;html=1;exitX=0.5;exitY=1;exitDx=0;exitDy=0;exitPerimeter=0;entryX=0.5;entryY=0;entryDx=0;entryDy=0;" edge="1" parent="WIyWlLk6GJQsqaUBKTNV-1" source="xqUfiWubJbebN2fs-ksx-56" target="xqUfiWubJbebN2fs-ksx-45">
          <mxGeometry relative="1" as="geometry">
            <mxPoint x="278" y="180" as="sourcePoint" />
            <mxPoint x="209" y="230" as="targetPoint" />
          </mxGeometry>
        </mxCell>
        <mxCell id="xqUfiWubJbebN2fs-ksx-62" value="SI" style="edgeLabel;html=1;align=center;verticalAlign=middle;resizable=0;points=[];" vertex="1" connectable="0" parent="xqUfiWubJbebN2fs-ksx-61">
          <mxGeometry x="-0.8085" y="-3" relative="1" as="geometry">
            <mxPoint as="offset" />
          </mxGeometry>
        </mxCell>
        <mxCell id="xqUfiWubJbebN2fs-ksx-71" value="" style="edgeStyle=orthogonalEdgeStyle;rounded=0;orthogonalLoop=1;jettySize=auto;html=1;" edge="1" parent="WIyWlLk6GJQsqaUBKTNV-1" source="xqUfiWubJbebN2fs-ksx-66" target="xqUfiWubJbebN2fs-ksx-70">
          <mxGeometry relative="1" as="geometry" />
        </mxCell>
        <mxCell id="xqUfiWubJbebN2fs-ksx-66" value="Turn on led on head" style="rounded=1;whiteSpace=wrap;html=1;absoluteArcSize=1;arcSize=14;strokeWidth=2;" vertex="1" parent="WIyWlLk6GJQsqaUBKTNV-1">
          <mxGeometry x="214" y="310" width="114" height="40" as="geometry" />
        </mxCell>
        <mxCell id="xqUfiWubJbebN2fs-ksx-73" value="" style="edgeStyle=orthogonalEdgeStyle;rounded=0;orthogonalLoop=1;jettySize=auto;html=1;" edge="1" parent="WIyWlLk6GJQsqaUBKTNV-1" source="xqUfiWubJbebN2fs-ksx-70" target="xqUfiWubJbebN2fs-ksx-72">
          <mxGeometry relative="1" as="geometry" />
        </mxCell>
        <mxCell id="xqUfiWubJbebN2fs-ksx-70" value="Read input from touch sensor above the head" style="shape=parallelogram;perimeter=parallelogramPerimeter;whiteSpace=wrap;html=1;fixedSize=1;rounded=1;absoluteArcSize=1;arcSize=0;strokeWidth=2;" vertex="1" parent="WIyWlLk6GJQsqaUBKTNV-1">
          <mxGeometry x="174.5" y="380" width="193" height="40" as="geometry" />
        </mxCell>
        <mxCell id="xqUfiWubJbebN2fs-ksx-104" style="edgeStyle=orthogonalEdgeStyle;rounded=0;orthogonalLoop=1;jettySize=auto;html=1;exitX=0.5;exitY=1;exitDx=0;exitDy=0;entryX=0.5;entryY=0;entryDx=0;entryDy=0;" edge="1" parent="WIyWlLk6GJQsqaUBKTNV-1" source="xqUfiWubJbebN2fs-ksx-72" target="xqUfiWubJbebN2fs-ksx-101">
          <mxGeometry relative="1" as="geometry" />
        </mxCell>
        <mxCell id="xqUfiWubJbebN2fs-ksx-72" value="Send event to external modules" style="rounded=1;whiteSpace=wrap;html=1;absoluteArcSize=1;arcSize=0;strokeWidth=2;" vertex="1" parent="WIyWlLk6GJQsqaUBKTNV-1">
          <mxGeometry x="211" y="450" width="120" height="60" as="geometry" />
        </mxCell>
        <mxCell id="xqUfiWubJbebN2fs-ksx-74" value="Set last detection time" style="whiteSpace=wrap;html=1;rounded=1;absoluteArcSize=1;arcSize=0;strokeWidth=2;" vertex="1" parent="WIyWlLk6GJQsqaUBKTNV-1">
          <mxGeometry x="216" y="860" width="120" height="60" as="geometry" />
        </mxCell>
        <mxCell id="xqUfiWubJbebN2fs-ksx-86" style="edgeStyle=orthogonalEdgeStyle;rounded=0;orthogonalLoop=1;jettySize=auto;html=1;exitX=0.5;exitY=1;exitDx=0;exitDy=0;exitPerimeter=0;entryX=0.5;entryY=0;entryDx=0;entryDy=0;" edge="1" parent="WIyWlLk6GJQsqaUBKTNV-1" source="xqUfiWubJbebN2fs-ksx-82" target="xqUfiWubJbebN2fs-ksx-54">
          <mxGeometry relative="1" as="geometry" />
        </mxCell>
        <mxCell id="xqUfiWubJbebN2fs-ksx-88" value="SI" style="edgeLabel;html=1;align=center;verticalAlign=middle;resizable=0;points=[];" vertex="1" connectable="0" parent="xqUfiWubJbebN2fs-ksx-86">
          <mxGeometry x="-0.1661" relative="1" as="geometry">
            <mxPoint as="offset" />
          </mxGeometry>
        </mxCell>
        <mxCell id="xqUfiWubJbebN2fs-ksx-136" value="" style="edgeStyle=orthogonalEdgeStyle;rounded=0;orthogonalLoop=1;jettySize=auto;html=1;" edge="1" parent="WIyWlLk6GJQsqaUBKTNV-1" source="xqUfiWubJbebN2fs-ksx-82" target="xqUfiWubJbebN2fs-ksx-135">
          <mxGeometry relative="1" as="geometry" />
        </mxCell>
        <mxCell id="xqUfiWubJbebN2fs-ksx-140" value="NO" style="edgeLabel;html=1;align=center;verticalAlign=middle;resizable=0;points=[];" vertex="1" connectable="0" parent="xqUfiWubJbebN2fs-ksx-136">
          <mxGeometry x="-0.3914" y="1" relative="1" as="geometry">
            <mxPoint as="offset" />
          </mxGeometry>
        </mxCell>
        <mxCell id="xqUfiWubJbebN2fs-ksx-82" value="Is last detection time&lt;div&gt;&amp;nbsp;undefined or &amp;gt; 1 min?&lt;/div&gt;" style="strokeWidth=2;html=1;shape=mxgraph.flowchart.decision;whiteSpace=wrap;" vertex="1" parent="WIyWlLk6GJQsqaUBKTNV-1">
          <mxGeometry x="309.37" y="-150" width="181.25" height="90" as="geometry" />
        </mxCell>
        <mxCell id="xqUfiWubJbebN2fs-ksx-85" style="edgeStyle=orthogonalEdgeStyle;rounded=0;orthogonalLoop=1;jettySize=auto;html=1;exitX=0;exitY=0.5;exitDx=0;exitDy=0;" edge="1" parent="WIyWlLk6GJQsqaUBKTNV-1" source="xqUfiWubJbebN2fs-ksx-74">
          <mxGeometry relative="1" as="geometry">
            <mxPoint x="400" y="-390" as="targetPoint" />
            <Array as="points">
              <mxPoint x="120" y="890" />
              <mxPoint x="120" y="-390" />
            </Array>
          </mxGeometry>
        </mxCell>
        <mxCell id="xqUfiWubJbebN2fs-ksx-122" style="edgeStyle=orthogonalEdgeStyle;rounded=0;orthogonalLoop=1;jettySize=auto;html=1;exitX=0.5;exitY=1;exitDx=0;exitDy=0;" edge="1" parent="WIyWlLk6GJQsqaUBKTNV-1" source="xqUfiWubJbebN2fs-ksx-92" target="xqUfiWubJbebN2fs-ksx-98">
          <mxGeometry relative="1" as="geometry" />
        </mxCell>
        <mxCell id="xqUfiWubJbebN2fs-ksx-92" value="Check input" style="rounded=1;whiteSpace=wrap;html=1;absoluteArcSize=1;arcSize=14;strokeWidth=2;" vertex="1" parent="WIyWlLk6GJQsqaUBKTNV-1">
          <mxGeometry x="349.99" y="-350" width="100" height="30" as="geometry" />
        </mxCell>
        <mxCell id="xqUfiWubJbebN2fs-ksx-120" style="edgeStyle=orthogonalEdgeStyle;rounded=0;orthogonalLoop=1;jettySize=auto;html=1;exitX=0.5;exitY=1;exitDx=0;exitDy=0;exitPerimeter=0;" edge="1" parent="WIyWlLk6GJQsqaUBKTNV-1" source="xqUfiWubJbebN2fs-ksx-98" target="xqUfiWubJbebN2fs-ksx-82">
          <mxGeometry relative="1" as="geometry" />
        </mxCell>
        <mxCell id="xqUfiWubJbebN2fs-ksx-127" value="NO" style="edgeLabel;html=1;align=center;verticalAlign=middle;resizable=0;points=[];" vertex="1" connectable="0" parent="xqUfiWubJbebN2fs-ksx-120">
          <mxGeometry x="-0.2687" y="3" relative="1" as="geometry">
            <mxPoint as="offset" />
          </mxGeometry>
        </mxCell>
        <mxCell id="xqUfiWubJbebN2fs-ksx-130" style="edgeStyle=orthogonalEdgeStyle;rounded=0;orthogonalLoop=1;jettySize=auto;html=1;exitX=1;exitY=0.5;exitDx=0;exitDy=0;exitPerimeter=0;entryX=0;entryY=0.5;entryDx=0;entryDy=0;" edge="1" parent="WIyWlLk6GJQsqaUBKTNV-1" source="xqUfiWubJbebN2fs-ksx-98">
          <mxGeometry relative="1" as="geometry">
            <mxPoint x="570" y="-255" as="targetPoint" />
          </mxGeometry>
        </mxCell>
        <mxCell id="xqUfiWubJbebN2fs-ksx-133" value="SI" style="edgeLabel;html=1;align=center;verticalAlign=middle;resizable=0;points=[];" vertex="1" connectable="0" parent="xqUfiWubJbebN2fs-ksx-130">
          <mxGeometry x="-0.5057" y="3" relative="1" as="geometry">
            <mxPoint as="offset" />
          </mxGeometry>
        </mxCell>
        <mxCell id="xqUfiWubJbebN2fs-ksx-98" value="Is button event?" style="strokeWidth=2;html=1;shape=mxgraph.flowchart.decision;whiteSpace=wrap;" vertex="1" parent="WIyWlLk6GJQsqaUBKTNV-1">
          <mxGeometry x="334.99" y="-280" width="130.01" height="50" as="geometry" />
        </mxCell>
        <mxCell id="xqUfiWubJbebN2fs-ksx-107" value="" style="edgeStyle=orthogonalEdgeStyle;rounded=0;orthogonalLoop=1;jettySize=auto;html=1;" edge="1" parent="WIyWlLk6GJQsqaUBKTNV-1" source="xqUfiWubJbebN2fs-ksx-101" target="xqUfiWubJbebN2fs-ksx-106">
          <mxGeometry relative="1" as="geometry" />
        </mxCell>
        <mxCell id="xqUfiWubJbebN2fs-ksx-101" value="Turn on led strip" style="rounded=1;whiteSpace=wrap;html=1;absoluteArcSize=1;arcSize=14;strokeWidth=2;" vertex="1" parent="WIyWlLk6GJQsqaUBKTNV-1">
          <mxGeometry x="224.99" y="535" width="100" height="50" as="geometry" />
        </mxCell>
        <mxCell id="xqUfiWubJbebN2fs-ksx-102" style="edgeStyle=orthogonalEdgeStyle;rounded=0;orthogonalLoop=1;jettySize=auto;html=1;exitX=0.5;exitY=1;exitDx=0;exitDy=0;" edge="1" parent="WIyWlLk6GJQsqaUBKTNV-1" source="xqUfiWubJbebN2fs-ksx-101" target="xqUfiWubJbebN2fs-ksx-101">
          <mxGeometry relative="1" as="geometry" />
        </mxCell>
        <mxCell id="xqUfiWubJbebN2fs-ksx-113" style="edgeStyle=orthogonalEdgeStyle;rounded=0;orthogonalLoop=1;jettySize=auto;html=1;exitX=0.5;exitY=1;exitDx=0;exitDy=0;entryX=0.5;entryY=0;entryDx=0;entryDy=0;" edge="1" parent="WIyWlLk6GJQsqaUBKTNV-1" source="xqUfiWubJbebN2fs-ksx-118" target="xqUfiWubJbebN2fs-ksx-111">
          <mxGeometry relative="1" as="geometry" />
        </mxCell>
        <mxCell id="xqUfiWubJbebN2fs-ksx-114" style="edgeStyle=orthogonalEdgeStyle;rounded=0;orthogonalLoop=1;jettySize=auto;html=1;exitX=0.5;exitY=1;exitDx=0;exitDy=0;entryX=0.5;entryY=0;entryDx=0;entryDy=0;" edge="1" parent="WIyWlLk6GJQsqaUBKTNV-1" source="xqUfiWubJbebN2fs-ksx-118" target="xqUfiWubJbebN2fs-ksx-112">
          <mxGeometry relative="1" as="geometry" />
        </mxCell>
        <mxCell id="xqUfiWubJbebN2fs-ksx-119" style="edgeStyle=orthogonalEdgeStyle;rounded=0;orthogonalLoop=1;jettySize=auto;html=1;exitX=0.5;exitY=1;exitDx=0;exitDy=0;entryX=0.5;entryY=0;entryDx=0;entryDy=0;" edge="1" parent="WIyWlLk6GJQsqaUBKTNV-1" source="xqUfiWubJbebN2fs-ksx-106" target="xqUfiWubJbebN2fs-ksx-118">
          <mxGeometry relative="1" as="geometry" />
        </mxCell>
        <mxCell id="xqUfiWubJbebN2fs-ksx-106" value="Wait for lucky ball event" style="whiteSpace=wrap;html=1;rounded=1;absoluteArcSize=1;arcSize=14;strokeWidth=2;" vertex="1" parent="WIyWlLk6GJQsqaUBKTNV-1">
          <mxGeometry x="216" y="610" width="120" height="60" as="geometry" />
        </mxCell>
        <mxCell id="xqUfiWubJbebN2fs-ksx-115" style="edgeStyle=orthogonalEdgeStyle;rounded=0;orthogonalLoop=1;jettySize=auto;html=1;exitX=0.5;exitY=1;exitDx=0;exitDy=0;" edge="1" parent="WIyWlLk6GJQsqaUBKTNV-1" source="xqUfiWubJbebN2fs-ksx-111" target="xqUfiWubJbebN2fs-ksx-74">
          <mxGeometry relative="1" as="geometry" />
        </mxCell>
        <mxCell id="xqUfiWubJbebN2fs-ksx-111" value="Change color led strip" style="rounded=1;whiteSpace=wrap;html=1;absoluteArcSize=1;arcSize=14;strokeWidth=2;" vertex="1" parent="WIyWlLk6GJQsqaUBKTNV-1">
          <mxGeometry x="163.25" y="780" width="110" height="50" as="geometry" />
        </mxCell>
        <mxCell id="xqUfiWubJbebN2fs-ksx-117" style="edgeStyle=orthogonalEdgeStyle;rounded=0;orthogonalLoop=1;jettySize=auto;html=1;exitX=0.5;exitY=1;exitDx=0;exitDy=0;entryX=0.5;entryY=0;entryDx=0;entryDy=0;" edge="1" parent="WIyWlLk6GJQsqaUBKTNV-1" source="xqUfiWubJbebN2fs-ksx-112" target="xqUfiWubJbebN2fs-ksx-74">
          <mxGeometry relative="1" as="geometry" />
        </mxCell>
        <mxCell id="xqUfiWubJbebN2fs-ksx-112" value="Reproduce sound" style="rounded=1;whiteSpace=wrap;html=1;absoluteArcSize=1;arcSize=14;strokeWidth=2;" vertex="1" parent="WIyWlLk6GJQsqaUBKTNV-1">
          <mxGeometry x="278.75" y="780" width="110" height="50" as="geometry" />
        </mxCell>
        <mxCell id="xqUfiWubJbebN2fs-ksx-118" value="Read lucky ball event" style="rounded=1;whiteSpace=wrap;html=1;absoluteArcSize=1;arcSize=14;strokeWidth=2;" vertex="1" parent="WIyWlLk6GJQsqaUBKTNV-1">
          <mxGeometry x="226" y="690" width="100" height="40" as="geometry" />
        </mxCell>
        <mxCell id="xqUfiWubJbebN2fs-ksx-132" style="edgeStyle=orthogonalEdgeStyle;rounded=0;orthogonalLoop=1;jettySize=auto;html=1;exitX=1;exitY=0.5;exitDx=0;exitDy=0;" edge="1" parent="WIyWlLk6GJQsqaUBKTNV-1" source="xqUfiWubJbebN2fs-ksx-129">
          <mxGeometry relative="1" as="geometry">
            <mxPoint x="400" y="-390" as="targetPoint" />
            <Array as="points">
              <mxPoint x="870" y="-255" />
              <mxPoint x="870" y="-390" />
            </Array>
          </mxGeometry>
        </mxCell>
        <mxCell id="xqUfiWubJbebN2fs-ksx-129" value="Increment counter queue position" style="rounded=1;whiteSpace=wrap;html=1;absoluteArcSize=1;arcSize=14;strokeWidth=2;" vertex="1" parent="WIyWlLk6GJQsqaUBKTNV-1">
          <mxGeometry x="570" y="-280" width="140" height="50" as="geometry" />
        </mxCell>
        <mxCell id="xqUfiWubJbebN2fs-ksx-134" value="One note to keep in mind: Button update the queue and it can be read anytime -&amp;gt; So code should be build to consider this behavior.&amp;nbsp;" style="whiteSpace=wrap;html=1;fillColor=#d80073;strokeColor=#A50040;fontColor=#ffffff;" vertex="1" parent="WIyWlLk6GJQsqaUBKTNV-1">
          <mxGeometry x="490.62" y="20" width="310" height="190" as="geometry" />
        </mxCell>
        <mxCell id="xqUfiWubJbebN2fs-ksx-139" style="edgeStyle=orthogonalEdgeStyle;rounded=0;orthogonalLoop=1;jettySize=auto;html=1;exitX=1;exitY=0.5;exitDx=0;exitDy=0;" edge="1" parent="WIyWlLk6GJQsqaUBKTNV-1" source="xqUfiWubJbebN2fs-ksx-135">
          <mxGeometry relative="1" as="geometry">
            <mxPoint x="400" y="-390" as="targetPoint" />
            <Array as="points">
              <mxPoint x="870" y="-105" />
              <mxPoint x="870" y="-390" />
            </Array>
          </mxGeometry>
        </mxCell>
        <mxCell id="xqUfiWubJbebN2fs-ksx-135" value="Call the next numbers in queue if there are any" style="whiteSpace=wrap;html=1;strokeWidth=2;" vertex="1" parent="WIyWlLk6GJQsqaUBKTNV-1">
          <mxGeometry x="601.245" y="-135" width="120" height="60" as="geometry" />
        </mxCell>
      </root>
    </mxGraphModel>
  </diagram>
</mxfile>
